<svg width="240" height="240" viewBox="0 0 240 240" fill="none" xmlns="http://www.w3.org/2000/svg">
<path d="M240 120C240 186.274 186.274 240 120 240C53.7258 240 0 186.274 0 120C0 53.7258 53.7258 0 120 0C186.274 0 240 53.7258 240 120ZM10.8 120C10.8 180.309 59.6905 229.2 120 229.2C180.309 229.2 229.2 180.309 229.2 120C229.2 59.6905 180.309 10.8 120 10.8C59.6905 10.8 10.8 59.6905 10.8 120Z" fill="#191919" fill-opacity="0.8"/>
<path d="M81.0748 70.0932C81.0719 63.9348 87.7367 60.0826 93.0715 63.1593L180.095 113.347C185.43 116.424 185.434 124.122 180.102 127.204L93.1261 177.475C87.7942 180.556 81.1257 176.711 81.1228 170.552L81.0748 70.0932Z" fill="#191919" fill-opacity="0.8"/>
</svg>
