<svg width="44" height="44" viewBox="0 0 44 44" fill="none" xmlns="http://www.w3.org/2000/svg">
<path d="M22 41C11.5066 41 3 32.4934 3 22C3 11.5066 11.5066 3 22 3C32.4934 3 41 11.5066 41 22C41 32.4934 32.4934 41 22 41Z" stroke="#191919" stroke-width="1.5" stroke-miterlimit="10"/>
<path d="M19.1047 33.4819H23.7274V21.9002H26.9523L27.2917 18.0263H23.7174C23.7174 18.0263 23.7174 16.5786 23.7174 15.8198C23.7174 14.9012 23.8971 14.5418 24.7857 14.5418C25.4946 14.5418 27.2917 14.5418 27.2917 14.5418V10.5181C27.2917 10.5181 24.6559 10.5181 24.0868 10.5181C20.6422 10.5181 19.0947 12.0357 19.0947 14.9312C19.0947 17.4572 19.0947 18.0263 19.0947 18.0263H16.6885V21.9501H19.0947V33.4819H19.1047Z" fill="#191919"/>
</svg>
