<svg width="1440" height="342" viewBox="0 0 1440 342" fill="none" xmlns="http://www.w3.org/2000/svg">
<g clip-path="url(#clip0_76_201)">
<path d="M680.801 296.671C631.55 337.894 623.905 427.592 659.794 459.859C703.622 499.253 778.689 422.715 888.102 452.544C937.557 466.019 967.979 494.145 992.638 523.449C951.441 575.371 858.702 518.74 732.524 526.287L689.421 530.491C553.897 575.519 524.678 662.841 468.327 645.835C438.155 636.733 432.37 588.489 424.407 537.407C428.014 537.218 431.757 537.008 435.682 536.797C488.517 533.854 544.119 464.295 535.136 402.976C524.632 331.419 430.328 299.782 399.748 289.524C264.677 244.223 87.3433 290.323 2.5216 360.387C-23.2266 335.687 -41.3298 303.692 -46.3433 262.574C-63.4937 121.858 55.7195 20.4301 147.234 28.0819C251.928 36.8477 253.244 192.342 404.648 247.523C547.159 299.467 643.415 166.654 795.658 218.409C838.534 232.976 876.623 259.232 908.293 290.365C810.926 303.188 738.763 248.154 680.801 296.671Z" fill="#FAB400"/>
<path d="M1272.76 406.528C1301.39 429.189 1390.95 515.188 1428.59 523.806C1416.47 580.606 1340.89 478.085 1301.93 524.206C1245.22 591.348 1159.26 627.147 1100.12 617.078C1050.83 608.69 1027.46 564.882 992.615 523.47C997.333 517.521 1001.39 510.164 1004.73 501.082C1019.97 459.649 981.136 362.026 908.269 290.386C920.86 288.725 933.836 285.95 947.289 281.662C1079.36 239.493 1076.14 109.182 1180.47 105.756C1182.13 105.693 1183.79 105.714 1185.44 105.714C1159.17 171.384 1213.19 359.378 1272.76 406.528Z" fill="#D261A1"/>
<path d="M1004.75 501.061C1001.42 510.142 997.356 517.5 992.638 523.449C967.978 494.124 937.557 466.019 888.102 452.544C778.689 422.715 703.622 499.253 659.793 459.859C623.904 427.592 631.55 337.873 680.8 296.671C738.762 248.154 810.948 303.188 908.292 290.365C981.159 362.005 1020 459.628 1004.75 501.061Z" fill="#E53012"/>
<path d="M1728.42 592.945C1571.03 592.945 1521.98 565.618 1428.59 523.806C1438.89 475.52 1399.44 275.797 1376.34 233.796C1345.9 178.447 1254.29 106.113 1185.44 105.692C1187.42 100.731 1189.84 95.8966 1192.75 91.2298C1257.29 -12.5 1437.88 0.774721 1457 5C1618 53.5 1590.04 84.2298 1673.98 159.906C1901.77 365.285 1860 592.945 1728.42 592.945Z" fill="#52B1E4"/>
<path d="M1376.34 233.796C1399.44 275.797 1438.89 475.52 1428.59 523.806C1390.95 515.208 1301.39 429.189 1272.76 406.528C1213.19 359.378 1159.17 171.384 1185.47 105.692C1254.29 106.134 1345.9 178.447 1376.34 233.796Z" fill="#4354A1"/>
<path d="M399.725 289.524C430.305 299.782 524.609 331.419 535.113 402.976C544.119 464.274 488.494 533.855 435.659 536.798C431.711 537.008 427.991 537.218 424.384 537.407C416.263 485.274 405.872 430.156 365.016 410.67C303.197 381.177 255.852 444.808 160.845 429.589C103.223 420.361 43.2647 399.591 2.47583 360.387C87.3203 290.323 264.654 244.223 399.725 289.524Z" fill="#009039"/>
</g>
<defs>
<clipPath id="clip0_76_201">
<rect width="1884" height="648" fill="white" transform="translate(-48)"/>
</clipPath>
</defs>
</svg>
