<svg width="44" height="44" viewBox="0 0 44 44" fill="none" xmlns="http://www.w3.org/2000/svg">
<path d="M22 41C11.5066 41 3.00001 32.4934 3.00001 22C2.99002 11.5066 11.4966 3 22 3C32.4934 3 41 11.5066 41 22C41 32.4934 32.4934 41 22 41Z" stroke="#191919" stroke-width="1.5" stroke-miterlimit="10"/>
<path d="M22 13.4635C24.7856 13.4635 25.1151 13.4735 26.2133 13.5234C27.2317 13.5733 27.7809 13.7431 28.1503 13.8828C28.6395 14.0725 28.979 14.3022 29.3484 14.6616C29.7178 15.031 29.9375 15.3705 30.1272 15.8597C30.2669 16.2291 30.4367 16.7783 30.4866 17.7966C30.5365 18.8949 30.5465 19.2244 30.5465 22.01C30.5465 24.7956 30.5265 25.1151 30.4766 26.2134C30.4267 27.2318 30.2569 27.7809 30.1172 28.1503C29.9275 28.6395 29.6978 28.979 29.3384 29.3484C28.969 29.7078 28.6295 29.9375 28.1403 30.1272C27.7709 30.267 27.2217 30.4367 26.2033 30.4866C25.1051 30.5365 24.7756 30.5465 21.99 30.5465C19.2044 30.5465 18.8749 30.5365 17.7767 30.4866C16.7583 30.4367 16.2091 30.267 15.8397 30.1272C15.3505 29.9375 15.011 29.7078 14.6416 29.3484C14.2722 28.979 14.0525 28.6395 13.8628 28.1503C13.7231 27.7809 13.5533 27.2318 13.5034 26.2134C13.4535 25.1151 13.4435 24.7856 13.4435 22C13.4435 19.2144 13.4535 18.8849 13.5034 17.7867C13.5533 16.7683 13.7231 16.2191 13.8628 15.8497C14.0525 15.3605 14.2822 15.021 14.6416 14.6516C15.011 14.2822 15.3505 14.0625 15.8397 13.8728C16.2091 13.7331 16.7583 13.5633 17.7767 13.5134C18.8849 13.4735 19.2144 13.4635 22 13.4635ZM22 11.5865C19.1744 11.5865 18.815 11.5964 17.7068 11.6464C16.5985 11.6963 15.8397 11.876 15.1808 12.1356C14.4918 12.4052 13.9128 12.7546 13.3337 13.3337C12.7546 13.9128 12.3952 14.4919 12.1356 15.1808C11.876 15.8397 11.7062 16.5985 11.6463 17.7068C11.5964 18.815 11.5864 19.1745 11.5864 22C11.5864 24.8256 11.5964 25.185 11.6463 26.2932C11.6963 27.4015 11.876 28.1603 12.1356 28.8192C12.4051 29.5082 12.7546 30.0872 13.3337 30.6663C13.9128 31.2454 14.4918 31.6048 15.1808 31.8644C15.8397 32.124 16.5985 32.2938 17.7068 32.3537C18.815 32.4036 19.1744 32.4136 22 32.4136C24.8255 32.4136 25.185 32.4036 26.2932 32.3537C27.4015 32.3037 28.1603 32.124 28.8192 31.8644C29.5081 31.5949 30.0872 31.2454 30.6663 30.6663C31.2454 30.0872 31.6048 29.5082 31.8644 28.8192C32.124 28.1603 32.2937 27.4015 32.3536 26.2932C32.4036 25.185 32.4135 24.8256 32.4135 22C32.4135 19.1745 32.4036 18.815 32.3536 17.7068C32.3037 16.5985 32.124 15.8397 31.8644 15.1808C31.5948 14.4919 31.2454 13.9128 30.6663 13.3337C30.0872 12.7546 29.5081 12.3952 28.8192 12.1356C28.1603 11.876 27.4015 11.7063 26.2932 11.6464C25.175 11.5964 24.8255 11.5865 22 11.5865Z" fill="#191919"/>
<path d="M22 16.6485C19.0446 16.6485 16.6484 19.0447 16.6484 22C16.6484 24.9554 19.0446 27.3516 22 27.3516C24.9553 27.3516 27.3515 24.9554 27.3515 22C27.3415 19.0447 24.9453 16.6485 22 16.6485ZM22 25.4745C20.083 25.4745 18.5255 23.917 18.5255 22C18.5255 20.083 20.083 18.5255 22 18.5255C23.9169 18.5255 25.4745 20.083 25.4745 22C25.4645 23.917 23.9169 25.4745 22 25.4745Z" fill="#191919"/>
<path d="M28.8093 16.4388C28.8093 17.1277 28.2502 17.6868 27.5613 17.6868C26.8724 17.6868 26.3132 17.1277 26.3132 16.4388C26.3132 15.7499 26.8724 15.1907 27.5613 15.1907C28.2502 15.1907 28.8093 15.7499 28.8093 16.4388Z" fill="#191919"/>
</svg>
