<svg width="44" height="44" viewBox="0 0 44 44" fill="none" xmlns="http://www.w3.org/2000/svg">
<path d="M22 41C11.5066 41 3 32.4934 3 22C3 11.5066 11.5066 3 22 3C32.4934 3 41 11.5066 41 22C41 32.4934 32.4934 41 22 41Z" stroke="#191919" stroke-width="1.5" stroke-miterlimit="10"/>
<path d="M17.3173 17.7667H13.3835V30.4666H17.3173V17.7667Z" fill="#191919"/>
<path d="M15.3305 16.0993C16.6184 16.0993 17.6568 15.051 17.6568 13.753C17.6568 12.4551 16.6184 11.4067 15.3305 11.4067C14.0425 11.4067 13.0042 12.4551 13.0042 13.753C13.0042 15.051 14.0425 16.0993 15.3305 16.0993Z" fill="#191919"/>
<path d="M23.6073 23.7972C23.6073 22.01 24.426 20.9516 26.0035 20.9516C27.4512 20.9516 28.1401 21.97 28.1401 23.7972C28.1401 25.6243 28.1401 30.4666 28.1401 30.4666H32.054C32.054 30.4666 32.054 25.824 32.054 22.4193C32.054 19.0147 30.127 17.3673 27.4313 17.3673C24.7355 17.3673 23.6073 19.464 23.6073 19.464V17.7567H19.8333V30.4566H23.6073C23.6073 30.4666 23.6073 25.7541 23.6073 23.7972Z" fill="#191919"/>
</svg>
