<svg width="164" height="50" viewBox="0 0 164 50" fill="none" xmlns="http://www.w3.org/2000/svg">
<g clip-path="url(#clip0_76_30)">
<path d="M65.3733 15.381H72.152L79.2597 36.083H74.0905L72.7629 31.9673H64.7859L63.4524 36.083H58.2832L65.3733 15.381ZM71.4295 27.8046L69.0799 20.408H68.4924L66.1428 27.8046H71.4295Z" fill="#191919"/>
<path d="M79.1364 21.0019H83.7182L86.8373 30.909H87.4248L90.5263 21.0019H95.1022L90.0681 36.083H84.1646L79.1364 21.0019Z" fill="#191919"/>
<path d="M111.426 31.4969C111.08 32.4024 110.575 33.2373 109.923 33.9546C108.442 35.5421 106.357 36.4123 104.19 36.3535C99.6077 36.3535 96.3593 33.1021 96.3593 28.516C96.3593 23.9299 99.6077 20.6844 104.19 20.6844C108.619 20.6844 111.873 23.9358 111.873 28.222C111.873 28.5983 111.844 28.9746 111.779 29.345L111.726 29.6978H100.794C100.882 31.4911 102.392 32.8845 104.19 32.8257C104.947 32.8316 105.693 32.6023 106.316 32.1731C106.58 31.985 106.809 31.7557 106.997 31.4911L111.426 31.4969ZM107.585 27.0637C107.144 25.0823 105.993 24.1239 104.19 24.1239C102.386 24.1239 101.252 25.1 100.794 27.0637H107.585Z" fill="#191919"/>
<path d="M114.675 21.0019H118.517L118.81 22.3307H118.957C119.257 22.0191 119.592 21.7486 119.962 21.5311C120.901 20.9607 121.994 20.6726 123.092 20.7079C126.617 20.7079 129.149 23.2185 129.149 26.9168V36.083H124.72V27.8046C124.72 26.2524 123.463 24.9941 121.912 24.9941C120.361 24.9941 119.11 26.2524 119.104 27.8046V36.083H114.675V21.0019Z" fill="#191919"/>
<path d="M136.797 36.671C136.885 36.9885 137.061 37.2766 137.302 37.5C137.925 38.0762 138.759 38.3702 139.605 38.2996C141.526 38.2996 142.542 37.2648 142.542 35.4892V33.7253H142.395C142.142 34.0193 141.843 34.2662 141.508 34.4661C140.715 34.9541 139.799 35.2011 138.87 35.1776C134.853 35.1776 131.927 32.2378 131.927 27.9339C131.927 23.6301 134.864 20.6903 138.87 20.6903C139.916 20.6667 140.944 20.9784 141.808 21.5722C142.148 21.8309 142.454 22.1308 142.724 22.46H142.877L143.17 20.9842H147.012V35.4892C147.012 39.6049 144.498 42.1449 139.622 42.1449C136.139 42.1449 134.277 40.7808 133.331 39.4226C132.75 38.6054 132.38 37.6646 132.239 36.671H136.797ZM142.559 27.9516C142.554 26.2347 141.167 24.8471 139.452 24.853C137.737 24.8589 136.35 26.2465 136.356 27.9633C136.362 29.6743 137.749 31.0619 139.458 31.0619C141.126 31.103 142.518 29.786 142.559 28.1103C142.559 28.0574 142.559 28.0045 142.559 27.9516Z" fill="#191919"/>
<path d="M159.841 34.7484H159.677C159.389 35.0776 159.054 35.3598 158.672 35.5774C157.732 36.1242 156.651 36.3946 155.565 36.3535C152.04 36.3535 149.949 34.2839 149.949 31.6204C149.949 28.8159 152.017 26.7462 156.152 26.7462H159.553V26.4464C159.553 25.1176 158.696 24.2298 157.204 24.2298C156.511 24.1945 155.829 24.4414 155.318 24.9118C155.112 25.0882 154.954 25.3116 154.842 25.5586H150.56C150.883 22.8716 153.068 20.6844 157.204 20.6844C161.609 20.6844 164 23.0362 164 26.417V36.0595H160.158L159.841 34.7484ZM159.547 29.7213H156.74C155.083 29.7213 154.39 30.4327 154.39 31.35C154.39 32.2672 155.124 32.9786 156.458 32.9786C158.378 32.9786 159.559 31.8027 159.559 30.0388L159.547 29.7213Z" fill="#191919"/>
<path d="M8.65843 24.6708C8.65843 15.2281 4.79913 8.28435 10.5793 4.29211C23.4378 -5.39157 29.7525 17.3507 8.65843 24.6708Z" fill="#FF4FE4"/>
<path d="M29.4 39.7813C36.1964 42.821 39.9735 45.5668 43.7858 41.3511C47.5981 36.9414 51.0756 27.6517 29.4 39.7813Z" fill="#00B5FF"/>
<path d="M16.0129 48.3361C17.9572 48.4654 19.414 48.0186 21.4288 46.4252C23.708 44.6261 25.1001 42.2331 29.4 39.7813C26.9975 38.7347 24.454 38.0351 21.8517 37.7058C12.3709 36.3535 -0.0646582 41.6451 16.0129 48.3361Z" fill="#FFB300"/>
<path d="M29.4 39.7813C25.1002 42.2331 23.708 44.6261 21.4288 46.4252C19.414 48.0186 17.9572 48.4654 16.0129 48.3361C25.8168 52.1166 36.9307 49.318 43.7858 41.3511C39.9617 45.5668 36.1964 42.821 29.4 39.7813Z" fill="#00960A"/>
<path d="M1.12193 32.326C1.12193 32.326 1.12193 32.3906 1.1513 32.42C1.56249 33.7429 2.08529 35.0306 2.71382 36.2653C6.82572 44.4203 8.87579 33.1315 8.65845 24.6707C1.74459 26.9814 0.428781 29.9683 1.12193 32.326Z" fill="#FFB300"/>
<path d="M8.6585 24.6708C8.6585 15.4457 4.97542 8.60185 10.2034 4.56845C1.60366 10.9596 -2.0383 22.0896 1.12786 32.3377C0.422961 29.98 1.73289 26.9873 8.6585 24.6708Z" fill="#FF3607"/>
<path d="M32.4957 0.787872C34.6985 1.68745 34.8454 5.12701 33.8409 7.68463C33.2418 9.17216 32.7366 10.695 32.3254 12.2472C32.2431 12.6235 32.1609 12.988 32.0787 13.3467C34.5576 15.187 40.3671 15.5104 44.6846 17.4212C47.6216 18.7206 49.8949 20.7726 49.9713 24.5767C49.9067 13.6936 42.8518 4.09808 32.4957 0.787872Z" fill="#194EEF"/>
<path d="M49.9536 24.659C49.8949 15.187 36.2434 16.4981 32.0786 13.3466C29.7525 24.2474 50.03 39.2933 49.9478 24.6649" fill="#00B5FF"/>
<path d="M32.0787 13.3467C20.3304 5.15053 22.4745 -2.52821 32.4899 0.793758C34.6927 1.69333 34.8395 5.13289 33.835 7.69051C33.0655 9.51319 32.4781 11.4064 32.0787 13.3467Z" fill="#FF4FE4"/>
</g>
<defs>
<clipPath id="clip0_76_30">
<rect width="164" height="50" fill="white"/>
</clipPath>
</defs>
</svg>
