<svg viewBox="0 0 240 240" fill="#191919" xmlns="http://www.w3.org/2000/svg"><path d="M240 120c0 66.274-53.726 120-120 120S0 186.274 0 120 53.726 0 120 0s120 53.726 120 120Zm-229.2 0c0 60.309 48.89 109.2 109.2 109.2 60.309 0 109.2-48.891 109.2-109.2 0-60.31-48.891-109.2-109.2-109.2C59.69 10.8 10.8 59.69 10.8 120Z"/><path d="M81.075 70.093c-.003-6.158 6.662-10.01 11.996-6.934l87.024 50.188c5.335 3.077 5.339 10.775.007 13.857l-86.976 50.271c-5.332 3.081-12-.764-12.003-6.923l-.048-100.459Z"/></svg>